# xmcd
#
# Track frame offsets:
#	150
#	15550
#	28590
#	43382
#	57612
#	67792
#	77592
#	93300
#	104620
#	120420
#	130125
#	142922
#	153532
#	166265
#	179400
#	197212
#	207255
#	222222
#
# Disc length: 3101 seconds
#
# Revision: 0
# Processed by: cddbd v1.5.2PL0 Copyright (c) Steve Scherf et al.
# Submitted via: audiograbber 1.83.01
#
DISCID=fb0c1b12
DTITLE=Various Artist - Compact Country - Disc 6
DYEAR=1900
DGENRE=Country
TTITLE0=Kris Kristofferson - For The Good Times
TTITLE1=Roy Orbison - Born On The Wind
TTITLE2=Don Gibson - I Can't Stop Loving You
TTITLE3=Guy Mitchell - She Wears Red Feathers
TTITLE4=Col Joye - Oh Yeah, Uh Huh
TTITLE5=Frankie Laine - Gunfight At The OK Corral
TTITLE6=Floyd Cramer - Always On My Mind
TTITLE7=Dolly Parton - Dumb Blonde
TTITLE8=Kris Kristofferson - The Devil To Pay
TTITLE9=Don Gibson - Take These Chains From My Heart
TTITLE10=Michael Jones - If I Only Had Time
TTITLE11=Frankie Laine - The Hanging Tree
TTITLE12=Guy Mitchell - The Roving Kind
TTITLE13=Roy Orbison - Blue Angel
TTITLE14=Ricky Nelson - Garden Party
TTITLE15=The Everly Brothers - Bird Dog
TTITLE16=Colleen Hewett - Wind Beneath My Wings
TTITLE17=Ricky Nelson - Hello Mary Lou
EXTD=
EXTT0=
EXTT1=
EXTT2=
EXTT3=
EXTT4=
EXTT5=
EXTT6=
EXTT7=
EXTT8=
EXTT9=
EXTT10=
EXTT11=
EXTT12=
EXTT13=
EXTT14=
EXTT15=
EXTT16=
EXTT17=
PLAYORDER=
